<svg width="20" height="20" viewBox="0 0 21 21" fill="none" xmlns="http://www.w3.org/2000/svg">
<path d="M17.25 0C18.2446 0 19.1984 0.395088 19.9017 1.09835C20.6049 1.80161 21 2.75544 21 3.75V17.25C21 18.2446 20.6049 19.1984 19.9017 19.9017C19.1984 20.6049 18.2446 21 17.25 21H3.75C2.75544 21 1.80161 20.6049 1.09835 19.9017C0.395088 19.1984 0 18.2446 0 17.25V3.75C0 2.75544 0.395088 1.80161 1.09835 1.09835C1.80161 0.395088 2.75544 0 3.75 0H17.25ZM17.25 1.5H3.75C3.15326 1.5 2.58097 1.73705 2.15901 2.15901C1.73705 2.58097 1.5 3.15326 1.5 3.75V17.25C1.5 17.8467 1.73705 18.419 2.15901 18.841C2.58097 19.2629 3.15326 19.5 3.75 19.5H17.25C17.8467 19.5 18.419 19.2629 18.841 18.841C19.2629 18.419 19.5 17.8467 19.5 17.25V3.75C19.5 3.15326 19.2629 2.58097 18.841 2.15901C18.419 1.73705 17.8467 1.5 17.25 1.5ZM14.577 9C15.246 9 15.4875 9.069 15.732 9.201C15.9737 9.32867 16.1713 9.52627 16.299 9.768C16.431 10.0125 16.5 10.254 16.5 10.923V14.577C16.5 15.246 16.431 15.4875 16.299 15.732C16.1712 15.9736 15.9736 16.1712 15.732 16.299C15.489 16.431 15.246 16.5 14.577 16.5H6.423C5.754 16.5 5.5125 16.431 5.268 16.299C5.02639 16.1712 4.82882 15.9736 4.701 15.732C4.569 15.489 4.5 15.246 4.5 14.577V10.923C4.5 10.254 4.569 10.0125 4.701 9.768C4.8289 9.52644 5.02644 9.3289 5.268 9.201C5.5125 9.069 5.754 9 6.423 9H14.577ZM14.868 10.503H6.132L6.012 10.5105L6.003 10.6305V14.868L6.0105 14.988L6.1305 14.997H14.868L14.988 14.9895L14.997 14.8695V10.632L14.9895 10.512L14.8695 10.503H14.868ZM15.75 4.5C15.9374 4.49965 16.1182 4.56949 16.2567 4.69576C16.3952 4.82203 16.4814 4.99558 16.4983 5.18223C16.5152 5.36888 16.4617 5.55511 16.3482 5.70425C16.2347 5.85338 16.0694 5.95461 15.885 5.988L15.75 6H5.25C5.06258 6.00035 4.88182 5.93051 4.74332 5.80424C4.60483 5.67797 4.51862 5.50442 4.50169 5.31777C4.48475 5.13112 4.53832 4.94489 4.65183 4.79575C4.76534 4.64662 4.93058 4.54539 5.115 4.512L5.25 4.5H15.75Z" fill="black"/>
</svg>
