<svg width="20" height="20" viewBox="0 0 24 26" fill="none" xmlns="http://www.w3.org/2000/svg">
<path d="M3.25 2.75H4.5V0.25H7V2.75H17V0.25H19.5V2.75H20.75C22.1375 2.75 23.25 3.8625 23.25 5.25V22.75C23.25 23.413 22.9866 24.0489 22.5178 24.5178C22.0489 24.9866 21.413 25.25 20.75 25.25H3.25C2.58696 25.25 1.95107 24.9866 1.48223 24.5178C1.01339 24.0489 0.75 23.413 0.75 22.75V5.25C0.75 4.58696 1.01339 3.95107 1.48223 3.48223C1.95107 3.01339 2.58696 2.75 3.25 2.75ZM3.25 22.75H20.75V10.25H3.25V22.75ZM3.25 7.75H20.75V5.25H3.25V7.75ZM18.25 12.75V15.25H5.75V12.75H18.25Z" fill="blue"/>
</svg>
